<svg width="24" height="25" viewBox="0 0 24 25" fill="none" xmlns="http://www.w3.org/2000/svg">
<path d="M17.25 18.5H17.0977C16.918 17.625 16.6016 16.8203 16.1484 16.0859C15.6953 15.3516 15.1445 14.7188 14.4961 14.1875C13.8477 13.6562 13.1172 13.2422 12.3047 12.9453C11.4922 12.6484 10.6406 12.5 9.75 12.5C9.0625 12.5 8.39844 12.5898 7.75781 12.7695C7.11719 12.9492 6.51953 13.1992 5.96484 13.5195C5.41016 13.8398 4.90625 14.2305 4.45312 14.6914C4 15.1523 3.60938 15.6602 3.28125 16.2148C2.95312 16.7695 2.69922 17.3672 2.51953 18.0078C2.33984 18.6484 2.25 19.3125 2.25 20H0.75C0.75 19.0625 0.886719 18.1602 1.16016 17.293C1.43359 16.4258 1.82812 15.625 2.34375 14.8906C2.85938 14.1562 3.46875 13.5039 4.17188 12.9336C4.875 12.3633 5.67188 11.9141 6.5625 11.5859C5.67969 11.0078 4.99219 10.2812 4.5 9.40625C4.00781 8.53125 3.75781 7.5625 3.75 6.5C3.75 5.67188 3.90625 4.89453 4.21875 4.16797C4.53125 3.44141 4.95703 2.80469 5.49609 2.25781C6.03516 1.71094 6.67188 1.28125 7.40625 0.96875C8.14062 0.65625 8.92188 0.5 9.75 0.5C10.5781 0.5 11.3555 0.65625 12.082 0.96875C12.8086 1.28125 13.4453 1.70703 13.9922 2.24609C14.5391 2.78516 14.9688 3.42188 15.2812 4.15625C15.5938 4.89062 15.75 5.67188 15.75 6.5C15.75 7.01562 15.6875 7.51953 15.5625 8.01172C15.4375 8.50391 15.25 8.96875 15 9.40625C14.75 9.84375 14.457 10.2461 14.1211 10.6133C13.7852 10.9805 13.3906 11.3047 12.9375 11.5859C13.8125 11.9219 14.6172 12.3828 15.3516 12.9688C16.0859 13.5547 16.7188 14.2422 17.25 15.0312V18.5ZM5.25 6.5C5.25 7.125 5.36719 7.70703 5.60156 8.24609C5.83594 8.78516 6.15625 9.26172 6.5625 9.67578C6.96875 10.0898 7.44531 10.4141 7.99219 10.6484C8.53906 10.8828 9.125 11 9.75 11C10.3672 11 10.9492 10.8828 11.4961 10.6484C12.043 10.4141 12.5195 10.0938 12.9258 9.6875C13.332 9.28125 13.6562 8.80469 13.8984 8.25781C14.1406 7.71094 14.2578 7.125 14.25 6.5C14.25 5.88281 14.1328 5.30078 13.8984 4.75391C13.6641 4.20703 13.3438 3.73047 12.9375 3.32422C12.5312 2.91797 12.0508 2.59375 11.4961 2.35156C10.9414 2.10938 10.3594 1.99219 9.75 2C9.125 2 8.54297 2.11719 8.00391 2.35156C7.46484 2.58594 6.98828 2.90625 6.57422 3.3125C6.16016 3.71875 5.83594 4.19922 5.60156 4.75391C5.36719 5.30859 5.25 5.89062 5.25 6.5ZM20.25 20H23.25V21.5H20.25V24.5H18.75V21.5H15.75V20H18.75V17H20.25V20Z" fill="#D9D9D9"/>
</svg>
