<svg width="34" height="33" viewBox="0 0 34 33" fill="none" xmlns="http://www.w3.org/2000/svg">
<g clip-path="url(#clip0_14_600)">
<path d="M9.74467 13.8476L8.84748 16.5H6.55811L10.3985 6.1875H13.0467L16.8706 16.5H14.4637L13.5665 13.8476H9.74467ZM13.1148 12.3296L11.7144 8.15925H11.6133L10.2129 12.3296H13.1148Z" fill="#858686"/>
<path d="M0.370605 4.125C0.370605 3.03098 0.805203 1.98177 1.57879 1.20818C2.35238 0.434597 3.40159 0 4.49561 0L18.9331 0C20.0271 0 21.0763 0.434597 21.8499 1.20818C22.6235 1.98177 23.0581 3.03098 23.0581 4.125V10.3125H29.2456C30.3396 10.3125 31.3888 10.7471 32.1624 11.5207C32.936 12.2943 33.3706 13.3435 33.3706 14.4375V28.875C33.3706 29.969 32.936 31.0182 32.1624 31.7918C31.3888 32.5654 30.3396 33 29.2456 33H14.8081C13.7141 33 12.6649 32.5654 11.8913 31.7918C11.1177 31.0182 10.6831 29.969 10.6831 28.875V22.6875H4.49561C3.40159 22.6875 2.35238 22.2529 1.57879 21.4793C0.805203 20.7057 0.370605 19.6565 0.370605 18.5625V4.125ZM4.49561 2.0625C3.9486 2.0625 3.42399 2.2798 3.0372 2.66659C2.6504 3.05339 2.43311 3.57799 2.43311 4.125V18.5625C2.43311 19.1095 2.6504 19.6341 3.0372 20.0209C3.42399 20.4077 3.9486 20.625 4.49561 20.625H18.9331C19.4801 20.625 20.0047 20.4077 20.3915 20.0209C20.7783 19.6341 20.9956 19.1095 20.9956 18.5625V4.125C20.9956 3.57799 20.7783 3.05339 20.3915 2.66659C20.0047 2.2798 19.4801 2.0625 18.9331 2.0625H4.49561ZM19.2177 22.6772C19.6158 23.298 20.0469 23.8796 20.5171 24.4221C18.9744 25.608 17.0665 26.4866 14.8081 27.0868C15.1752 27.5344 15.7383 28.3965 15.9528 28.875C18.2731 28.1346 20.2428 27.1342 21.9052 25.7936C23.5077 27.1652 25.4919 28.1964 27.9483 28.8296C28.2226 28.3057 28.8022 27.4416 29.2456 26.994C26.9253 26.4722 25.003 25.5626 23.4294 24.3457C24.8339 22.8051 25.9497 20.9406 26.7727 18.6594H29.2456V16.5H23.0581V18.6594H24.6359C23.98 20.4002 23.1097 21.8481 22.0124 23.0526C21.7093 22.7297 21.4236 22.391 21.1565 22.0378C20.5745 22.411 19.9075 22.6309 19.2177 22.6772Z" fill="#858686"/>
</g>
<defs>
<clipPath id="clip0_14_600">
<rect width="33" height="33" fill="white" transform="translate(0.370605)"/>
</clipPath>
</defs>
</svg>
