<svg width="30" height="30" viewBox="0 0 30 30" fill="none" xmlns="http://www.w3.org/2000/svg">
<circle cx="15" cy="15" r="15" fill="#8D8AFF"/>
<path d="M23.966 19.686C23.8166 19.7622 23.6491 19.7955 23.482 19.7821C23.3149 19.7687 23.1548 19.7091 23.0194 19.6101L21.1324 18.2346V19.4818C21.1324 19.8844 20.973 20.2706 20.6892 20.5553C20.4054 20.84 20.0205 21 19.6192 21H7.51324C7.1119 21 6.72701 20.84 6.44322 20.5553C6.15943 20.2706 6 19.8844 6 19.4818V10.9798C6 10.5771 6.15943 10.1909 6.44322 9.90621C6.72701 9.62149 7.1119 9.46154 7.51324 9.46154H19.6192C20.0205 9.46154 20.4054 9.62149 20.6892 9.90621C20.973 10.1909 21.1324 10.5771 21.1324 10.9798V12.227L23.0194 10.8499C23.1549 10.7511 23.315 10.6917 23.482 10.6784C23.649 10.6652 23.8165 10.6986 23.9657 10.7749C24.115 10.8512 24.2404 10.9674 24.3279 11.1108C24.4154 11.2541 24.4616 11.419 24.4615 11.587V18.8745C24.4615 19.0424 24.4152 19.2071 24.3278 19.3503C24.2403 19.4935 24.1151 19.6097 23.966 19.686ZM19.3165 11.2834H7.81589V19.1781H19.3165V11.2834ZM22.6456 13.3763L21.1324 14.48V15.9815L22.6456 17.0853V13.3763Z" fill="white"/>
</svg>
