<svg width="49" height="48" viewBox="0 0 49 48" fill="none" xmlns="http://www.w3.org/2000/svg">
<rect x="0.226562" width="48" height="48" rx="24" fill="#FF473E"/>
<path d="M34.6097 12L12.2266 34.3832L13.8308 36L19.995 29.8358C23.9234 33.3853 29.0392 35.3684 34.3318 35.3684C34.6668 35.3684 34.9881 35.2353 35.225 34.9985C35.4619 34.7616 35.595 34.4403 35.595 34.1053V29.6842C35.595 29.3492 35.4619 29.0279 35.225 28.791C34.9881 28.5541 34.6668 28.4211 34.3318 28.4211C32.7529 28.4211 31.2371 28.1684 29.8224 27.7011C29.3802 27.5621 28.8876 27.6632 28.5339 28.0168L25.755 30.7958C24.3024 30.0632 22.9634 29.1284 21.776 28.0547L36.2266 13.6042L34.6097 12ZM14.1213 12.6316C13.7863 12.6316 13.465 12.7647 13.2281 13.0015C12.9912 13.2384 12.8581 13.5597 12.8581 13.8947C12.8581 18.4042 14.2981 22.8 16.9508 26.4505L18.7445 24.6316C18.2552 23.9441 17.8162 23.2222 17.4308 22.4716L20.2097 19.6926C20.5634 19.3389 20.6645 18.8463 20.5255 18.4042C20.0463 16.9491 19.8033 15.4267 19.8055 13.8947C19.8055 13.5597 19.6724 13.2384 19.4355 13.0015C19.1987 12.7647 18.8774 12.6316 18.5424 12.6316H14.1213Z" fill="white"/>
</svg>
