<svg width="31" height="35" viewBox="0 0 31 35" fill="none" xmlns="http://www.w3.org/2000/svg">
<path d="M14.1955 34.7796C14.787 34.7645 15.3546 34.5169 15.7979 34.0809C16.2413 33.6448 16.5318 33.0483 16.618 32.3968H11.679C11.7677 33.066 12.0718 33.6765 12.5347 34.1148C12.9976 34.5532 13.5878 34.7894 14.1955 34.7796Z" fill="#8D8AFF"/>
<path d="M28.1396 28.3519L27.8204 28.0384C26.9147 27.1402 26.1219 26.1102 25.4635 24.9763C24.7445 23.4113 24.3135 21.7022 24.1959 19.9494V14.7867C24.1921 14.1596 24.1418 13.5339 24.0456 12.9159C22.4551 12.5521 21.0264 11.5877 20.0014 10.186C18.9764 8.78424 18.4182 7.03137 18.4211 5.2241V4.5657C17.4407 4.02872 16.3874 3.67561 15.3036 3.52061V2.2038C15.3036 1.83377 15.1716 1.4789 14.9365 1.21725C14.7014 0.955602 14.3825 0.808609 14.0501 0.808609C13.7176 0.808609 13.3988 0.955602 13.1637 1.21725C12.9286 1.4789 12.7965 1.83377 12.7965 2.2038V3.57287C10.3699 3.95386 8.14907 5.29908 6.544 7.36019C4.93893 9.4213 4.05803 12.0591 4.06392 14.7867V19.9494C3.94631 21.7022 3.51534 23.4113 2.79628 24.9763C2.1492 26.1074 1.3692 27.1372 0.476972 28.0384L0.157715 28.3519V31.299H28.1396V28.3519Z" fill="#8D8AFF"/>
<path d="M25.463 10.4509C28.056 10.4509 30.158 8.11137 30.158 5.22544C30.158 2.33951 28.056 0 25.463 0C22.8701 0 20.7681 2.33951 20.7681 5.22544C20.7681 8.11137 22.8701 10.4509 25.463 10.4509Z" fill="#FFC219"/>
</svg>
