<svg width="34" height="34" viewBox="0 0 34 34" fill="none" xmlns="http://www.w3.org/2000/svg">
<path d="M10.9838 32.9034C14.951 34.3999 19.333 34.3636 23.2748 32.8014V1.19863C19.333 -0.363583 14.951 -0.399944 10.9838 1.09664V32.9034Z" fill="white"/>
<path d="M11.3831 0.952118C8.0569 2.11547 5.1745 4.285 3.13506 7.16022C1.09561 10.0354 0 13.4741 0 17C0 20.5259 1.09561 23.9645 3.13506 26.8398C5.1745 29.715 8.0569 31.8845 11.3831 33.0479V0.952118Z" fill="#0B55B1"/>
<path d="M23.1474 1.14763V32.8524C26.3431 31.6138 29.0898 29.4369 31.0266 26.6078C32.9635 23.7786 34 20.4294 34 17C34 13.5706 32.9635 10.2214 31.0266 7.3922C29.0898 4.56303 26.3431 2.38622 23.1474 1.14763Z" fill="#D60A2E"/>
</svg>
