<svg width="88" height="23" viewBox="0 0 88 23" fill="none" xmlns="http://www.w3.org/2000/svg">
<g clip-path="url(#clip0_14_395)">
<path d="M22.3639 7.84615H18.4697V16.5662H22.3639V7.84615Z" fill="#F6F6F6"/>
<path d="M38.0227 5.66196V14.8977C38.0233 15.961 37.83 17.0141 37.4539 17.9967C37.0778 18.9794 36.5262 19.8724 35.8307 20.6248C35.1351 21.3771 34.3092 21.9741 33.4 22.3817C32.4909 22.7892 31.5164 22.9993 30.5321 23H10.3051C9.32076 22.9993 8.34622 22.7892 7.43708 22.3817C6.52794 21.9741 5.70201 21.3771 5.00644 20.6248C4.31088 19.8724 3.7593 18.9794 3.38319 17.9967C3.00709 17.0141 2.81383 15.961 2.81445 14.8977V5.66196H6.75588V14.137C6.75588 15.2735 7.17348 16.3635 7.91693 17.1676C8.66039 17.9718 9.66891 18.4242 10.7209 18.4255H30.0973C30.6186 18.4255 31.1348 18.3146 31.6164 18.0991C32.0981 17.8836 32.5357 17.5677 32.9043 17.1694C33.273 16.7712 33.5654 16.2984 33.7649 15.7781C33.9644 15.2578 34.0671 14.7002 34.0671 14.137V5.66196H38.0227Z" fill="#F6F6F6"/>
<path d="M87.9996 18.446V23H63.9541C62.9694 23 61.9943 22.7904 61.0846 22.3831C60.175 21.9759 59.3485 21.379 58.6524 20.6266C57.9563 19.8741 57.4043 18.9809 57.0279 17.9979C56.6515 17.0149 56.4581 15.9615 56.4587 14.8977V5.66196H60.4002V14.137C60.3995 14.6999 60.5016 15.2575 60.7006 15.7777C60.8996 16.298 61.1916 16.7708 61.5598 17.1691C61.9281 17.5674 62.3654 17.8834 62.8468 18.099C63.3281 18.3146 63.8441 18.4255 64.3652 18.4255L87.9996 18.446Z" fill="#F6F6F6"/>
<path d="M45.4278 5.66196H41.51V22.9949H45.4278V5.66196Z" fill="#FFC219"/>
<path d="M52.9044 5.66196H48.9866V22.9949H52.9044V5.66196Z" fill="#FFC219"/>
</g>
<defs>
<clipPath id="clip0_14_395">
<rect width="88" height="23" fill="white"/>
</clipPath>
</defs>
</svg>
