<svg width="31" height="31" viewBox="0 0 31 31" fill="none" xmlns="http://www.w3.org/2000/svg">
<path d="M15.2627 16.9835C16.0911 16.9835 16.7627 16.3119 16.7627 15.4835C16.7627 14.6551 16.0911 13.9835 15.2627 13.9835C14.4343 13.9835 13.7627 14.6551 13.7627 15.4835C13.7627 16.3119 14.4343 16.9835 15.2627 16.9835Z" fill="#B3B5B7"/>
<path d="M21.2627 16.9835C22.0911 16.9835 22.7627 16.3119 22.7627 15.4835C22.7627 14.6551 22.0911 13.9835 21.2627 13.9835C20.4343 13.9835 19.7627 14.6551 19.7627 15.4835C19.7627 16.3119 20.4343 16.9835 21.2627 16.9835Z" fill="#B3B5B7"/>
<path d="M9.26269 16.9835C10.0911 16.9835 10.7627 16.3119 10.7627 15.4835C10.7627 14.6551 10.0911 13.9835 9.26269 13.9835C8.43427 13.9835 7.7627 14.6551 7.7627 15.4835C7.7627 16.3119 8.43427 16.9835 9.26269 16.9835Z" fill="#B3B5B7"/>
<path d="M25.8676 4.87849C23.4065 2.40124 20.1581 0.860312 16.6826 0.521356C13.207 0.182399 9.72215 1.06666 6.82871 3.02169C3.93526 4.97672 1.81458 7.88 0.832275 11.231C-0.150033 14.582 0.0675913 18.1707 1.44763 21.3785C1.59146 21.6766 1.63866 22.0122 1.58263 22.3385L0.262628 28.6835C0.211773 28.9268 0.222158 29.1788 0.29285 29.4171C0.363542 29.6554 0.492326 29.8723 0.667628 30.0485C0.811335 30.1911 0.98244 30.3032 1.17063 30.378C1.35882 30.4528 1.5602 30.4886 1.76263 30.4835H2.06263L8.48263 29.1935C8.80893 29.1543 9.13981 29.2008 9.44263 29.3285C12.6504 30.7085 16.2391 30.9261 19.5901 29.9438C22.9411 28.9615 25.8444 26.8409 27.7994 23.9474C29.7545 21.054 30.6387 17.5691 30.2998 14.0936C29.9608 10.618 28.4199 7.36967 25.9426 4.90849L25.8676 4.87849ZM27.1126 17.4185C26.8194 19.2095 26.1237 20.9106 25.078 22.3938C24.0322 23.8771 22.6637 25.1039 21.0754 25.9818C19.487 26.8597 17.7202 27.3659 15.908 27.4623C14.0957 27.5588 12.2852 27.2429 10.6126 26.5385C10.0194 26.2862 9.38223 26.1536 8.73763 26.1485C8.45605 26.1505 8.17511 26.1755 7.89763 26.2235L3.66763 27.0785L4.52263 22.8485C4.69292 21.9324 4.58314 20.9863 4.20763 20.1335C3.50322 18.4609 3.18734 16.6504 3.28377 14.8382C3.3802 13.0259 3.88642 11.2591 4.76434 9.67077C5.64227 8.08242 6.86902 6.71389 8.35227 5.66817C9.83553 4.62244 11.5367 3.92677 13.3276 3.63349C15.2075 3.32497 17.1339 3.46845 18.9473 4.05208C20.7608 4.63571 22.4093 5.64272 23.7563 6.9898C25.1034 8.33688 26.1104 9.98532 26.694 11.7988C27.2777 13.6122 27.4212 15.5386 27.1126 17.4185Z" fill="#B3B5B7"/>
</svg>
