<svg width="31" height="30" viewBox="0 0 31 30" fill="none" xmlns="http://www.w3.org/2000/svg">
<circle cx="14.5002" cy="15.5" r="8.5" fill="white"/>
<path d="M22.6389 16.5H16.6389V22.5H13.6389V16.5H7.63892V13.5H13.6389V7.5H16.6389V13.5H22.6389M15.1389 0C13.1691 0 11.2185 0.387987 9.39866 1.14181C7.57878 1.89563 5.92519 3.00052 4.53231 4.3934C1.71927 7.20644 0.138916 11.0218 0.138916 15C0.138916 18.9782 1.71927 22.7936 4.53231 25.6066C5.92519 26.9995 7.57878 28.1044 9.39866 28.8582C11.2185 29.612 13.1691 30 15.1389 30C19.1172 30 22.9325 28.4196 25.7455 25.6066C28.5586 22.7936 30.1389 18.9782 30.1389 15C30.1389 13.0302 29.7509 11.0796 28.9971 9.25975C28.2433 7.43986 27.1384 5.78628 25.7455 4.3934C24.3526 3.00052 22.6991 1.89563 20.8792 1.14181C19.0593 0.387987 17.1087 0 15.1389 0Z" fill="#8D8AFF"/>
</svg>
