<svg width="48" height="49" viewBox="0 0 48 49" fill="none" xmlns="http://www.w3.org/2000/svg">
<rect x="0.300781" y="0.5" width="47.6842" height="48" rx="23.8421" fill="#45C655"/>
<path d="M24.1429 27.6579C23.0903 27.6579 22.1955 27.2895 21.4587 26.5526C20.7218 25.8158 20.3534 24.9211 20.3534 23.8684V16.2895C20.3534 15.2368 20.7218 14.3421 21.4587 13.6053C22.1955 12.8684 23.0903 12.5 24.1429 12.5C25.1955 12.5 26.0903 12.8684 26.8271 13.6053C27.5639 14.3421 27.9324 15.2368 27.9324 16.2895V23.8684C27.9324 24.9211 27.5639 25.8158 26.8271 26.5526C26.0903 27.2895 25.1955 27.6579 24.1429 27.6579ZM22.8797 36.5V32.6158C20.6903 32.3211 18.8797 31.3421 17.4481 29.6789C16.0166 28.0158 15.3008 26.0789 15.3008 23.8684H17.8271C17.8271 25.6158 18.4431 27.1055 19.6751 28.3375C20.9071 29.5695 22.3964 30.1851 24.1429 30.1842C25.8903 30.1842 27.3799 29.5682 28.6119 28.3362C29.8439 27.1042 30.4595 25.6149 30.4587 23.8684H32.985C32.985 26.0789 32.2692 28.0158 30.8376 29.6789C29.406 31.3421 27.5955 32.3211 25.406 32.6158V36.5H22.8797Z" fill="white"/>
</svg>
