<svg width="30" height="23" viewBox="0 0 30 23" fill="none" xmlns="http://www.w3.org/2000/svg">
<path d="M14.9996 18.7C14.7609 18.7 14.532 18.6051 14.3632 18.4363C14.1944 18.2676 14.0996 18.0386 14.0996 17.8V7.37255L11.1368 10.3372C10.9678 10.5061 10.7386 10.6011 10.4996 10.6011C10.2606 10.6011 10.0314 10.5061 9.86241 10.3372C9.69341 10.1682 9.59847 9.93895 9.59847 9.69995C9.59847 9.46096 9.69341 9.23175 9.86241 9.06275L14.3624 4.56275C14.446 4.47894 14.5453 4.41244 14.6547 4.36707C14.764 4.3217 14.8812 4.29834 14.9996 4.29834C15.118 4.29834 15.2352 4.3217 15.3445 4.36707C15.4539 4.41244 15.5532 4.47894 15.6368 4.56275L20.1368 9.06275C20.3058 9.23175 20.4007 9.46096 20.4007 9.69995C20.4007 9.93895 20.3058 10.1682 20.1368 10.3372C19.9678 10.5061 19.7386 10.6011 19.4996 10.6011C19.2606 10.6011 19.0314 10.5061 18.8624 10.3372L15.8996 7.37255V17.8C15.8996 18.0386 15.8048 18.2676 15.636 18.4363C15.4672 18.6051 15.2383 18.7 14.9996 18.7ZM0.599609 4.29995C0.599609 3.34517 0.978894 2.4295 1.65402 1.75437C2.32916 1.07924 3.24483 0.699951 4.19961 0.699951H25.7996C26.7544 0.699951 27.6701 1.07924 28.3452 1.75437C29.0203 2.4295 29.3996 3.34517 29.3996 4.29995V18.7C29.3996 19.6547 29.0203 20.5704 28.3452 21.2455C27.6701 21.9207 26.7544 22.3 25.7996 22.3H4.19961C3.24483 22.3 2.32916 21.9207 1.65402 21.2455C0.978894 20.5704 0.599609 19.6547 0.599609 18.7V4.29995ZM4.19961 2.49995C3.72222 2.49995 3.26438 2.68959 2.92682 3.02716C2.58925 3.36472 2.39961 3.82256 2.39961 4.29995V18.7C2.39961 19.1773 2.58925 19.6352 2.92682 19.9727C3.26438 20.3103 3.72222 20.5 4.19961 20.5H25.7996C26.277 20.5 26.7348 20.3103 27.0724 19.9727C27.41 19.6352 27.5996 19.1773 27.5996 18.7V4.29995C27.5996 3.82256 27.41 3.36472 27.0724 3.02716C26.7348 2.68959 26.277 2.49995 25.7996 2.49995H4.19961Z" fill="#B3B5B7"/>
</svg>
