<svg width="30" height="31" viewBox="0 0 30 31" fill="none" xmlns="http://www.w3.org/2000/svg">
<path d="M15 3.75C18.1826 3.75 21.2348 5.01428 23.4853 7.26472C25.7357 9.51516 27 12.5674 27 15.75C27 18.9326 25.7357 21.9848 23.4853 24.2353C21.2348 26.4857 18.1826 27.75 15 27.75C11.8174 27.75 8.76516 26.4857 6.51472 24.2353C4.26428 21.9848 3 18.9326 3 15.75C3 12.5674 4.26428 9.51516 6.51472 7.26472C8.76516 5.01428 11.8174 3.75 15 3.75ZM10.7325 19.3905C10.6631 19.3206 10.5805 19.265 10.4896 19.227C10.3987 19.1889 10.3012 19.1692 10.2027 19.1688C10.1041 19.1685 10.0065 19.1875 9.91528 19.2249C9.8241 19.2623 9.74118 19.3173 9.67125 19.3867C9.60132 19.4562 9.54575 19.5387 9.50772 19.6296C9.46969 19.7205 9.44993 19.8181 9.44958 19.9166C9.44923 20.0151 9.4683 20.1128 9.50569 20.204C9.54308 20.2952 9.59806 20.3781 9.6675 20.448C11.0269 21.816 12.8602 22.6092 14.7881 22.6633C16.716 22.7175 18.5909 22.0286 20.025 20.739L20.3325 20.448L20.418 20.343C20.5171 20.1982 20.5624 20.0233 20.5458 19.8487C20.5293 19.674 20.4521 19.5106 20.3276 19.387C20.2031 19.2634 20.0392 19.1874 19.8644 19.1721C19.6896 19.1568 19.515 19.2033 19.371 19.3035L19.2675 19.3905L19.0005 19.6455C17.8511 20.6682 16.3535 21.2117 14.8157 21.1643C13.2779 21.1168 11.8167 20.4821 10.7325 19.3905ZM18.75 12C18.3522 12 17.9706 12.158 17.6893 12.4393C17.408 12.7206 17.25 13.1022 17.25 13.5C17.25 13.8978 17.408 14.2794 17.6893 14.5607C17.9706 14.842 18.3522 15 18.75 15C19.1478 15 19.5294 14.842 19.8107 14.5607C20.092 14.2794 20.25 13.8978 20.25 13.5C20.25 13.1022 20.092 12.7206 19.8107 12.4393C19.5294 12.158 19.1478 12 18.75 12ZM11.25 12C10.8522 12 10.4706 12.158 10.1893 12.4393C9.90804 12.7206 9.75 13.1022 9.75 13.5C9.75 13.8978 9.90804 14.2794 10.1893 14.5607C10.4706 14.842 10.8522 15 11.25 15C11.6478 15 12.0294 14.842 12.3107 14.5607C12.592 14.2794 12.75 13.8978 12.75 13.5C12.75 13.1022 12.592 12.7206 12.3107 12.4393C12.0294 12.158 11.6478 12 11.25 12Z" fill="#B3B5B7"/>
</svg>
